<?xml version="1.0" encoding="UTF-8"?>
<svg xmlns="http://www.w3.org/2000/svg" xmlns:xlink="http://www.w3.org/1999/xlink" width="144in" height="36.5in" viewBox="0 0 144 36.5">
<path fill="none" stroke-width="0.75" stroke-linecap="butt" stroke-linejoin="miter" stroke="rgb(50%, 50%, 100%)" stroke-opacity="0.201764" stroke-miterlimit="10" d="M 49.921875 10.75 L 48.417969 25.75 "/>
<path fill="none" stroke-width="0.75" stroke-linecap="butt" stroke-linejoin="miter" stroke="rgb(50%, 50%, 100%)" stroke-opacity="0.201764" stroke-miterlimit="10" d="M 49.921875 10.75 L 49.921875 25.75 "/>
<path fill="none" stroke-width="0.75" stroke-linecap="butt" stroke-linejoin="miter" stroke="rgb(50%, 50%, 100%)" stroke-opacity="0.201764" stroke-miterlimit="10" d="M 48.417969 10.75 L 49.921875 25.75 "/>
<path fill="none" stroke-width="0.75" stroke-linecap="butt" stroke-linejoin="miter" stroke="rgb(50%, 50%, 100%)" stroke-opacity="0.201764" stroke-miterlimit="10" d="M 113.644531 10.75 L 110.636719 25.75 "/>
<path fill="none" stroke-width="0.75" stroke-linecap="butt" stroke-linejoin="miter" stroke="rgb(50%, 50%, 100%)" stroke-opacity="0.201764" stroke-miterlimit="10" d="M 111.640625 10.75 L 111.640625 25.75 "/>
<path fill="none" stroke-width="0.75" stroke-linecap="butt" stroke-linejoin="miter" stroke="rgb(50%, 50%, 100%)" stroke-opacity="0.201764" stroke-miterlimit="10" d="M 110.636719 10.75 L 113.644531 25.75 "/>
<path fill="none" stroke-width="0.75" stroke-linecap="butt" stroke-linejoin="miter" stroke="rgb(50%, 50%, 100%)" stroke-opacity="0.201764" stroke-miterlimit="10" d="M 109.632812 10.75 L 7.273438 25.75 "/>
<path fill="none" stroke-width="0.75" stroke-linecap="butt" stroke-linejoin="miter" stroke="rgb(50%, 50%, 100%)" stroke-opacity="0.201764" stroke-miterlimit="10" d="M 111.640625 10.75 L 7.273438 25.75 "/>
<path fill="none" stroke-width="0.75" stroke-linecap="butt" stroke-linejoin="miter" stroke="rgb(50%, 50%, 100%)" stroke-opacity="0.201764" stroke-miterlimit="10" d="M 7.273438 10.75 L 109.632812 25.75 "/>
<path fill="none" stroke-width="0.75" stroke-linecap="butt" stroke-linejoin="miter" stroke="rgb(50%, 50%, 100%)" stroke-opacity="0.201764" stroke-miterlimit="10" d="M 7.273438 10.75 L 111.640625 25.75 "/>
<path fill="none" stroke-width="0.75" stroke-linecap="butt" stroke-linejoin="miter" stroke="rgb(50%, 50%, 100%)" stroke-opacity="0.201764" stroke-miterlimit="10" d="M 7.273438 10.75 L 109.632812 25.75 "/>
<path fill="none" stroke-width="0.75" stroke-linecap="butt" stroke-linejoin="miter" stroke="rgb(50%, 50%, 100%)" stroke-opacity="0.201764" stroke-miterlimit="10" d="M 111.640625 10.75 L 109.632812 25.75 "/>
<path fill="none" stroke-width="0.75" stroke-linecap="butt" stroke-linejoin="miter" stroke="rgb(50%, 50%, 100%)" stroke-opacity="0.201764" stroke-miterlimit="10" d="M 113.144531 10.75 L 109.632812 25.75 "/>
<path fill="none" stroke-width="0.75" stroke-linecap="butt" stroke-linejoin="miter" stroke="rgb(50%, 50%, 100%)" stroke-opacity="0.201764" stroke-miterlimit="10" d="M 109.632812 10.75 L 111.640625 25.75 "/>
<path fill="none" stroke-width="0.75" stroke-linecap="butt" stroke-linejoin="miter" stroke="rgb(50%, 50%, 100%)" stroke-opacity="0.201764" stroke-miterlimit="10" d="M 111.640625 10.75 L 111.640625 25.75 "/>
<path fill="none" stroke-width="0.75" stroke-linecap="butt" stroke-linejoin="miter" stroke="rgb(50%, 50%, 100%)" stroke-opacity="0.201764" stroke-miterlimit="10" d="M 109.632812 10.75 L 113.144531 25.75 "/>
<path fill="none" stroke-width="0.75" stroke-linecap="butt" stroke-linejoin="miter" stroke="rgb(50%, 50%, 100%)" stroke-opacity="0.201764" stroke-miterlimit="10" d="M 111.136719 10.75 L 44.90625 25.75 "/>
<path fill="none" stroke-width="0.75" stroke-linecap="butt" stroke-linejoin="miter" stroke="rgb(100%, 10%, 10%)" stroke-opacity="0.32467" stroke-miterlimit="10" d="M 113.644531 10.75 L 113.144531 25.75 "/>
<path fill="none" stroke-width="0.75" stroke-linecap="butt" stroke-linejoin="miter" stroke="rgb(100%, 10%, 10%)" stroke-opacity="0.32467" stroke-miterlimit="10" d="M 113.144531 10.75 L 113.644531 25.75 "/>
<path fill="none" stroke-width="0.75" stroke-linecap="butt" stroke-linejoin="miter" stroke="rgb(100%, 10%, 10%)" stroke-opacity="0.32467" stroke-miterlimit="10" d="M 109.128906 10.75 L 37.878906 25.75 "/>
<path fill="none" stroke-width="0.75" stroke-linecap="butt" stroke-linejoin="miter" stroke="rgb(100%, 10%, 10%)" stroke-opacity="0.32467" stroke-miterlimit="10" d="M 37.878906 10.75 L 109.128906 25.75 "/>
<path fill="none" stroke-width="0.75" stroke-linecap="butt" stroke-linejoin="miter" stroke="rgb(100%, 10%, 10%)" stroke-opacity="0.32467" stroke-miterlimit="10" d="M 103.109375 10.75 L 37.878906 25.75 "/>
<path fill="none" stroke-width="0.75" stroke-linecap="butt" stroke-linejoin="miter" stroke="rgb(100%, 10%, 10%)" stroke-opacity="0.32467" stroke-miterlimit="10" d="M 44.90625 10.75 L 103.609375 25.75 "/>
<path fill="none" stroke-width="0.75" stroke-linecap="butt" stroke-linejoin="miter" stroke="rgb(100%, 10%, 10%)" stroke-opacity="0.32467" stroke-miterlimit="10" d="M 103.609375 10.75 L 44.90625 25.75 "/>
<path fill="none" stroke-width="0.75" stroke-linecap="butt" stroke-linejoin="miter" stroke="rgb(100%, 10%, 10%)" stroke-opacity="0.32467" stroke-miterlimit="10" d="M 37.878906 10.75 L 103.109375 25.75 "/>
<path fill="none" stroke-width="0.75" stroke-linecap="butt" stroke-linejoin="miter" stroke="rgb(100%, 10%, 10%)" stroke-opacity="0.32467" stroke-miterlimit="10" d="M 111.136719 10.75 L 46.410156 25.75 "/>
<path fill-rule="nonzero" fill="rgb(60%, 10%, 60%)" fill-opacity="0.535841" d="M 10.785156 0.75 L 56.445312 0.75 L 56.445312 10.75 L 10.785156 10.75 Z M 10.785156 0.75 "/>
<path fill-rule="nonzero" fill="rgb(60%, 10%, 60%)" fill-opacity="0.535841" d="M 6.269531 0.75 L 56.445312 0.75 L 56.445312 10.75 L 6.269531 10.75 Z M 6.269531 0.75 "/>
<path fill-rule="nonzero" fill="rgb(60%, 10%, 60%)" fill-opacity="0.535841" d="M 6.269531 0.75 L 56.445312 0.75 L 56.445312 10.75 L 6.269531 10.75 Z M 6.269531 0.75 "/>
<path fill-rule="nonzero" fill="rgb(60%, 10%, 60%)" fill-opacity="0.535841" d="M 7.273438 0.75 L 56.445312 0.75 L 56.445312 10.75 L 7.273438 10.75 Z M 7.273438 0.75 "/>
<path fill-rule="nonzero" fill="rgb(60%, 10%, 60%)" fill-opacity="0.535841" d="M 6.269531 0.75 L 56.445312 0.75 L 56.445312 10.75 L 6.269531 10.75 Z M 6.269531 0.75 "/>
<path fill-rule="nonzero" fill="rgb(60%, 10%, 60%)" fill-opacity="0.535841" d="M 5.265625 0.75 L 56.445312 0.75 L 56.445312 10.75 L 5.265625 10.75 Z M 5.265625 0.75 "/>
<path fill="none" stroke-width="0.75" stroke-linecap="butt" stroke-linejoin="miter" stroke="rgb(0%, 0%, 0%)" stroke-opacity="1" stroke-miterlimit="10" d="M 0.75 0.75 L 56.445312 0.75 L 56.445312 10.75 L 0.75 10.75 Z M 0.75 0.75 "/>
<path fill-rule="nonzero" fill="rgb(100%, 70%, 20%)" fill-opacity="0.535841" d="M 56.445312 0.75 L 87.050781 0.75 L 87.050781 10.75 L 56.445312 10.75 Z M 56.445312 0.75 "/>
<path fill-rule="nonzero" fill="rgb(100%, 70%, 20%)" fill-opacity="0.535841" d="M 56.445312 0.75 L 87.050781 0.75 L 87.050781 10.75 L 56.445312 10.75 Z M 56.445312 0.75 "/>
<path fill-rule="nonzero" fill="rgb(100%, 70%, 20%)" fill-opacity="0.535841" d="M 56.445312 0.75 L 87.050781 0.75 L 87.050781 10.75 L 56.445312 10.75 Z M 56.445312 0.75 "/>
<path fill-rule="nonzero" fill="rgb(100%, 70%, 20%)" fill-opacity="0.535841" d="M 56.445312 0.75 L 87.050781 0.75 L 87.050781 10.75 L 56.445312 10.75 Z M 56.445312 0.75 "/>
<path fill-rule="nonzero" fill="rgb(100%, 70%, 20%)" fill-opacity="0.535841" d="M 56.445312 0.75 L 87.050781 0.75 L 87.050781 10.75 L 56.445312 10.75 Z M 56.445312 0.75 "/>
<path fill-rule="nonzero" fill="rgb(100%, 70%, 20%)" fill-opacity="0.535841" stroke-width="0.75" stroke-linecap="butt" stroke-linejoin="miter" stroke="rgb(0%, 0%, 0%)" stroke-opacity="1" stroke-miterlimit="10" d="M 56.445312 0.75 L 87.050781 0.75 L 87.050781 10.75 L 56.445312 10.75 Z M 56.445312 0.75 "/>
<path fill-rule="nonzero" fill="rgb(100%, 70%, 20%)" fill-opacity="0.535841" d="M 117.160156 0.75 L 135.222656 0.75 L 135.222656 10.75 L 117.160156 10.75 Z M 117.160156 0.75 "/>
<path fill-rule="nonzero" fill="rgb(100%, 70%, 20%)" fill-opacity="0.535841" d="M 117.160156 0.75 L 135.222656 0.75 L 135.222656 10.75 L 117.160156 10.75 Z M 117.160156 0.75 "/>
<path fill-rule="nonzero" fill="rgb(100%, 70%, 20%)" fill-opacity="0.535841" d="M 117.160156 0.75 L 135.222656 0.75 L 135.222656 10.75 L 117.160156 10.75 Z M 117.160156 0.75 "/>
<path fill-rule="nonzero" fill="rgb(100%, 70%, 20%)" fill-opacity="0.535841" d="M 117.160156 0.75 L 135.222656 0.75 L 135.222656 10.75 L 117.160156 10.75 Z M 117.160156 0.75 "/>
<path fill-rule="nonzero" fill="rgb(100%, 70%, 20%)" fill-opacity="0.535841" d="M 117.160156 0.75 L 135.222656 0.75 L 135.222656 10.75 L 117.160156 10.75 Z M 117.160156 0.75 "/>
<path fill-rule="nonzero" fill="rgb(100%, 70%, 20%)" fill-opacity="0.535841" stroke-width="0.75" stroke-linecap="butt" stroke-linejoin="miter" stroke="rgb(0%, 0%, 0%)" stroke-opacity="1" stroke-miterlimit="10" d="M 117.160156 0.75 L 135.222656 0.75 L 135.222656 10.75 L 117.160156 10.75 Z M 117.160156 0.75 "/>
<path fill-rule="nonzero" fill="rgb(20%, 60%, 20%)" fill-opacity="0.535841" d="M 87.054688 0.75 L 117.160156 0.75 L 117.160156 10.75 L 87.054688 10.75 Z M 87.054688 0.75 "/>
<path fill-rule="nonzero" fill="rgb(20%, 60%, 20%)" fill-opacity="0.535841" d="M 87.054688 0.75 L 117.160156 0.75 L 117.160156 10.75 L 87.054688 10.75 Z M 87.054688 0.75 "/>
<path fill-rule="nonzero" fill="rgb(20%, 60%, 20%)" fill-opacity="0.535841" d="M 87.054688 0.75 L 117.160156 0.75 L 117.160156 10.75 L 87.054688 10.75 Z M 87.054688 0.75 "/>
<path fill-rule="nonzero" fill="rgb(20%, 60%, 20%)" fill-opacity="0.535841" d="M 87.054688 0.75 L 107.625 0.75 L 107.625 10.75 L 87.054688 10.75 Z M 87.054688 0.75 "/>
<path fill-rule="nonzero" fill="rgb(20%, 60%, 20%)" fill-opacity="0.535841" d="M 111.640625 0.75 L 117.160156 0.75 L 117.160156 10.75 L 111.640625 10.75 Z M 111.640625 0.75 "/>
<path fill-rule="nonzero" fill="rgb(20%, 60%, 20%)" fill-opacity="0.535841" d="M 87.054688 0.75 L 117.160156 0.75 L 117.160156 10.75 L 87.054688 10.75 Z M 87.054688 0.75 "/>
<path fill-rule="nonzero" fill="rgb(20%, 60%, 20%)" fill-opacity="0.535841" stroke-width="0.75" stroke-linecap="butt" stroke-linejoin="miter" stroke="rgb(0%, 0%, 0%)" stroke-opacity="1" stroke-miterlimit="10" d="M 87.054688 0.75 L 117.160156 0.75 L 117.160156 10.75 L 87.054688 10.75 Z M 87.054688 0.75 "/>
<path fill-rule="nonzero" fill="rgb(20%, 60%, 20%)" fill-opacity="0.535841" d="M 135.222656 0.75 L 143.25 0.75 L 143.25 10.75 L 135.222656 10.75 Z M 135.222656 0.75 "/>
<path fill-rule="nonzero" fill="rgb(20%, 60%, 20%)" fill-opacity="0.535841" d="M 135.222656 0.75 L 141.242188 0.75 L 141.242188 10.75 L 135.222656 10.75 Z M 135.222656 0.75 "/>
<path fill-rule="nonzero" fill="rgb(20%, 60%, 20%)" fill-opacity="0.535841" d="M 135.222656 0.75 L 141.746094 0.75 L 141.746094 10.75 L 135.222656 10.75 Z M 135.222656 0.75 "/>
<path fill-rule="nonzero" fill="rgb(20%, 60%, 20%)" fill-opacity="0.535841" d="M 135.222656 0.75 L 140.742188 0.75 L 140.742188 10.75 L 135.222656 10.75 Z M 135.222656 0.75 "/>
<path fill-rule="nonzero" fill="rgb(20%, 60%, 20%)" fill-opacity="0.535841" d="M 135.222656 0.75 L 141.242188 0.75 L 141.242188 10.75 L 135.222656 10.75 Z M 135.222656 0.75 "/>
<path fill-rule="nonzero" fill="rgb(20%, 60%, 20%)" fill-opacity="0.535841" stroke-width="0.75" stroke-linecap="butt" stroke-linejoin="miter" stroke="rgb(0%, 0%, 0%)" stroke-opacity="1" stroke-miterlimit="10" d="M 135.222656 0.75 L 143.25 0.75 L 143.25 10.75 L 135.222656 10.75 Z M 135.222656 0.75 "/>
<path fill="none" stroke-width="0.75" stroke-linecap="butt" stroke-linejoin="miter" stroke="rgb(0%, 0%, 0%)" stroke-opacity="0.5" stroke-miterlimit="10" d="M 6.769531 4.003906 C 6.769531 3.585938 7.109375 3.25 7.523438 3.25 L 12.039062 3.25 C 12.457031 3.25 12.792969 3.585938 12.792969 4.003906 L 12.792969 7.496094 C 12.792969 7.914062 12.457031 8.25 12.039062 8.25 L 7.523438 8.25 C 7.109375 8.25 6.769531 7.914062 6.769531 7.496094 Z M 6.769531 4.003906 "/>
<path fill="none" stroke-width="0.75" stroke-linecap="butt" stroke-linejoin="miter" stroke="rgb(0%, 0%, 0%)" stroke-opacity="0.5" stroke-miterlimit="10" d="M 15.300781 4.003906 C 15.300781 3.585938 15.636719 3.25 16.054688 3.25 L 18.0625 3.25 C 18.476562 3.25 18.8125 3.585938 18.8125 4.003906 L 18.8125 7.496094 C 18.8125 7.914062 18.476562 8.25 18.0625 8.25 L 16.054688 8.25 C 15.636719 8.25 15.300781 7.914062 15.300781 7.496094 Z M 15.300781 4.003906 "/>
<path fill="none" stroke-width="0.75" stroke-linecap="butt" stroke-linejoin="miter" stroke="rgb(0%, 0%, 0%)" stroke-opacity="0.5" stroke-miterlimit="10" d="M 20.320312 4.003906 C 20.320312 3.585938 20.65625 3.25 21.070312 3.25 L 29.097656 3.25 C 29.515625 3.25 29.851562 3.585938 29.851562 4.003906 L 29.851562 7.496094 C 29.851562 7.914062 29.515625 8.25 29.097656 8.25 L 21.070312 8.25 C 20.65625 8.25 20.320312 7.914062 20.320312 7.496094 Z M 20.320312 4.003906 "/>
<path fill="none" stroke-width="0.75" stroke-linecap="butt" stroke-linejoin="miter" stroke="rgb(0%, 0%, 0%)" stroke-opacity="0.5" stroke-miterlimit="10" d="M 33.867188 4.5 L 35.875 4.5 L 35.875 3.25 L 36.875 5.75 L 35.875 8.25 L 35.875 7 L 33.867188 7 Z M 33.867188 4.5 "/>
<path fill="none" stroke-width="0.75" stroke-linecap="butt" stroke-linejoin="miter" stroke="rgb(0%, 0%, 0%)" stroke-opacity="0.5" stroke-miterlimit="10" d="M 37.878906 4.5 L 40.390625 4.5 L 40.390625 3.25 L 41.394531 5.75 L 40.390625 8.25 L 40.390625 7 L 37.878906 7 Z M 37.878906 4.5 "/>
<path fill="none" stroke-width="0.75" stroke-linecap="butt" stroke-linejoin="miter" stroke="rgb(0%, 0%, 0%)" stroke-opacity="0.5" stroke-miterlimit="10" d="M 42.394531 4.5 L 43.902344 4.5 L 43.902344 3.25 L 44.90625 5.75 L 43.902344 8.25 L 43.902344 7 L 42.394531 7 Z M 42.394531 4.5 "/>
<path fill="none" stroke-width="0.75" stroke-linecap="butt" stroke-linejoin="miter" stroke="rgb(0%, 0%, 0%)" stroke-opacity="0.5" stroke-miterlimit="10" d="M 44.90625 4.003906 C 44.90625 3.585938 45.242188 3.25 45.65625 3.25 L 51.679688 3.25 C 52.09375 3.25 52.429688 3.585938 52.429688 4.003906 L 52.429688 7.496094 C 52.429688 7.914062 52.09375 8.25 51.679688 8.25 L 45.65625 8.25 C 45.242188 8.25 44.90625 7.914062 44.90625 7.496094 Z M 44.90625 4.003906 "/>
<path fill="none" stroke-width="0.75" stroke-linecap="butt" stroke-linejoin="miter" stroke="rgb(0%, 0%, 0%)" stroke-opacity="0.5" stroke-miterlimit="10" d="M 64.976562 4.003906 C 64.976562 3.585938 65.3125 3.25 65.726562 3.25 L 69.242188 3.25 C 69.65625 3.25 69.992188 3.585938 69.992188 4.003906 L 69.992188 7.496094 C 69.992188 7.914062 69.65625 8.25 69.242188 8.25 L 65.726562 8.25 C 65.3125 8.25 64.976562 7.914062 64.976562 7.496094 Z M 64.976562 4.003906 "/>
<path fill="none" stroke-width="0.75" stroke-linecap="butt" stroke-linejoin="miter" stroke="rgb(0%, 0%, 0%)" stroke-opacity="0.5" stroke-miterlimit="10" d="M 71.5 4.5 L 72 4.5 L 72 3.25 L 73.003906 5.75 L 72 8.25 L 72 7 L 71.5 7 Z M 71.5 4.5 "/>
<path fill="none" stroke-width="0.75" stroke-linecap="butt" stroke-linejoin="miter" stroke="rgb(0%, 0%, 0%)" stroke-opacity="0.5" stroke-miterlimit="10" d="M 74.007812 4.5 L 75.011719 4.5 L 75.011719 3.25 L 76.015625 5.75 L 75.011719 8.25 L 75.011719 7 L 74.007812 7 Z M 74.007812 4.5 "/>
<path fill="none" stroke-width="0.75" stroke-linecap="butt" stroke-linejoin="miter" stroke="rgb(0%, 0%, 0%)" stroke-opacity="0.5" stroke-miterlimit="10" d="M 77.019531 4.5 L 80.027344 4.5 L 80.027344 3.25 L 81.03125 5.75 L 80.027344 8.25 L 80.027344 7 L 77.019531 7 Z M 77.019531 4.5 "/>
<path fill="none" stroke-width="0.75" stroke-linecap="butt" stroke-linejoin="miter" stroke="rgb(0%, 0%, 0%)" stroke-opacity="0.5" stroke-miterlimit="10" d="M 82.035156 4.5 L 84.542969 4.5 L 84.542969 3.25 L 85.546875 5.75 L 84.542969 8.25 L 84.542969 7 L 82.035156 7 Z M 82.035156 4.5 "/>
<path fill="none" stroke-width="0.75" stroke-linecap="butt" stroke-linejoin="miter" stroke="rgb(0%, 0%, 0%)" stroke-opacity="0.5" stroke-miterlimit="10" d="M 87.554688 4.003906 C 87.554688 3.585938 87.890625 3.25 88.308594 3.25 L 94.832031 3.25 C 95.246094 3.25 95.582031 3.585938 95.582031 4.003906 L 95.582031 7.496094 C 95.582031 7.914062 95.246094 8.25 94.832031 8.25 L 88.308594 8.25 C 87.890625 8.25 87.554688 7.914062 87.554688 7.496094 Z M 87.554688 4.003906 "/>
<path fill="none" stroke-width="0.75" stroke-linecap="butt" stroke-linejoin="miter" stroke="rgb(0%, 0%, 0%)" stroke-opacity="0.5" stroke-miterlimit="10" d="M 96.585938 4.003906 C 96.585938 3.585938 96.921875 3.25 97.339844 3.25 L 106.371094 3.25 C 106.785156 3.25 107.125 3.585938 107.125 4.003906 L 107.125 7.496094 C 107.125 7.914062 106.785156 8.25 106.371094 8.25 L 97.339844 8.25 C 96.921875 8.25 96.585938 7.914062 96.585938 7.496094 Z M 96.585938 4.003906 "/>
<path fill="none" stroke-width="0.75" stroke-linecap="butt" stroke-linejoin="miter" stroke="rgb(0%, 0%, 0%)" stroke-opacity="0.5" stroke-miterlimit="10" d="M 108.628906 4.003906 C 108.628906 3.585938 108.964844 3.25 109.382812 3.25 L 112.390625 3.25 C 112.808594 3.25 113.144531 3.585938 113.144531 4.003906 L 113.144531 7.496094 C 113.144531 7.914062 112.808594 8.25 112.390625 8.25 L 109.382812 8.25 C 108.964844 8.25 108.628906 7.914062 108.628906 7.496094 Z M 108.628906 4.003906 "/>
<path fill="none" stroke-width="0.75" stroke-linecap="butt" stroke-linejoin="miter" stroke="rgb(0%, 0%, 0%)" stroke-opacity="0.5" stroke-miterlimit="10" d="M 114.148438 4.003906 C 114.148438 3.585938 114.484375 3.25 114.902344 3.25 L 115.402344 3.25 C 115.816406 3.25 116.15625 3.585938 116.15625 4.003906 L 116.15625 7.496094 C 116.15625 7.914062 115.816406 8.25 115.402344 8.25 L 114.902344 8.25 C 114.484375 8.25 114.148438 7.914062 114.148438 7.496094 Z M 114.148438 4.003906 "/>
<path fill="none" stroke-width="0.75" stroke-linecap="butt" stroke-linejoin="miter" stroke="rgb(0%, 0%, 0%)" stroke-opacity="0.5" stroke-miterlimit="10" d="M 118.160156 4.5 L 120.671875 4.5 L 120.671875 3.25 L 121.675781 5.75 L 120.671875 8.25 L 120.671875 7 L 118.160156 7 Z M 118.160156 4.5 "/>
<path fill="none" stroke-width="0.75" stroke-linecap="butt" stroke-linejoin="miter" stroke="rgb(0%, 0%, 0%)" stroke-opacity="0.5" stroke-miterlimit="10" d="M 122.175781 4.003906 C 122.175781 3.585938 122.511719 3.25 122.929688 3.25 L 141.492188 3.25 C 141.910156 3.25 142.246094 3.585938 142.246094 4.003906 L 142.246094 7.496094 C 142.246094 7.914062 141.910156 8.25 141.492188 8.25 L 122.929688 8.25 C 122.511719 8.25 122.175781 7.914062 122.175781 7.496094 Z M 122.175781 4.003906 "/>
<path fill-rule="nonzero" fill="rgb(60%, 10%, 60%)" fill-opacity="0.535841" d="M 10.785156 25.75 L 56.445312 25.75 L 56.445312 35.75 L 10.785156 35.75 Z M 10.785156 25.75 "/>
<path fill-rule="nonzero" fill="rgb(60%, 10%, 60%)" fill-opacity="0.535841" d="M 6.269531 25.75 L 56.445312 25.75 L 56.445312 35.75 L 6.269531 35.75 Z M 6.269531 25.75 "/>
<path fill-rule="nonzero" fill="rgb(60%, 10%, 60%)" fill-opacity="0.535841" d="M 5.769531 25.75 L 56.449219 25.75 L 56.449219 35.75 L 5.769531 35.75 Z M 5.769531 25.75 "/>
<path fill-rule="nonzero" fill="rgb(60%, 10%, 60%)" fill-opacity="0.535841" d="M 7.273438 25.75 L 56.445312 25.75 L 56.445312 35.75 L 7.273438 35.75 Z M 7.273438 25.75 "/>
<path fill-rule="nonzero" fill="rgb(60%, 10%, 60%)" fill-opacity="0.535841" d="M 6.269531 25.75 L 56.445312 25.75 L 56.445312 35.75 L 6.269531 35.75 Z M 6.269531 25.75 "/>
<path fill-rule="nonzero" fill="rgb(60%, 10%, 60%)" fill-opacity="0.535841" d="M 5.265625 25.75 L 56.445312 25.75 L 56.445312 35.75 L 5.265625 35.75 Z M 5.265625 25.75 "/>
<path fill="none" stroke-width="0.75" stroke-linecap="butt" stroke-linejoin="miter" stroke="rgb(0%, 0%, 0%)" stroke-opacity="1" stroke-miterlimit="10" d="M 0.75 25.75 L 56.445312 25.75 L 56.445312 35.75 L 0.75 35.75 Z M 0.75 25.75 "/>
<path fill-rule="nonzero" fill="rgb(100%, 70%, 20%)" fill-opacity="0.535841" d="M 56.445312 25.75 L 87.050781 25.75 L 87.050781 35.75 L 56.445312 35.75 Z M 56.445312 25.75 "/>
<path fill-rule="nonzero" fill="rgb(100%, 70%, 20%)" fill-opacity="0.535841" d="M 56.445312 25.75 L 87.050781 25.75 L 87.050781 35.75 L 56.445312 35.75 Z M 56.445312 25.75 "/>
<path fill-rule="nonzero" fill="rgb(100%, 70%, 20%)" fill-opacity="0.535841" d="M 56.445312 25.75 L 87.050781 25.75 L 87.050781 35.75 L 56.445312 35.75 Z M 56.445312 25.75 "/>
<path fill-rule="nonzero" fill="rgb(100%, 70%, 20%)" fill-opacity="0.535841" d="M 56.445312 25.75 L 87.050781 25.75 L 87.050781 35.75 L 56.445312 35.75 Z M 56.445312 25.75 "/>
<path fill-rule="nonzero" fill="rgb(100%, 70%, 20%)" fill-opacity="0.535841" d="M 56.445312 25.75 L 87.050781 25.75 L 87.050781 35.75 L 56.445312 35.75 Z M 56.445312 25.75 "/>
<path fill-rule="nonzero" fill="rgb(100%, 70%, 20%)" fill-opacity="0.535841" stroke-width="0.75" stroke-linecap="butt" stroke-linejoin="miter" stroke="rgb(0%, 0%, 0%)" stroke-opacity="1" stroke-miterlimit="10" d="M 56.445312 25.75 L 87.050781 25.75 L 87.050781 35.75 L 56.445312 35.75 Z M 56.445312 25.75 "/>
<path fill-rule="nonzero" fill="rgb(100%, 70%, 20%)" fill-opacity="0.535841" d="M 117.160156 25.75 L 135.222656 25.75 L 135.222656 35.75 L 117.160156 35.75 Z M 117.160156 25.75 "/>
<path fill-rule="nonzero" fill="rgb(100%, 70%, 20%)" fill-opacity="0.535841" d="M 117.160156 25.75 L 135.222656 25.75 L 135.222656 35.75 L 117.160156 35.75 Z M 117.160156 25.75 "/>
<path fill-rule="nonzero" fill="rgb(100%, 70%, 20%)" fill-opacity="0.535841" d="M 117.160156 25.75 L 135.222656 25.75 L 135.222656 35.75 L 117.160156 35.75 Z M 117.160156 25.75 "/>
<path fill-rule="nonzero" fill="rgb(100%, 70%, 20%)" fill-opacity="0.535841" d="M 117.160156 25.75 L 135.222656 25.75 L 135.222656 35.75 L 117.160156 35.75 Z M 117.160156 25.75 "/>
<path fill-rule="nonzero" fill="rgb(100%, 70%, 20%)" fill-opacity="0.535841" d="M 117.160156 25.75 L 135.222656 25.75 L 135.222656 35.75 L 117.160156 35.75 Z M 117.160156 25.75 "/>
<path fill-rule="nonzero" fill="rgb(100%, 70%, 20%)" fill-opacity="0.535841" stroke-width="0.75" stroke-linecap="butt" stroke-linejoin="miter" stroke="rgb(0%, 0%, 0%)" stroke-opacity="1" stroke-miterlimit="10" d="M 117.160156 25.75 L 135.222656 25.75 L 135.222656 35.75 L 117.160156 35.75 Z M 117.160156 25.75 "/>
<path fill-rule="nonzero" fill="rgb(20%, 60%, 20%)" fill-opacity="0.535841" d="M 87.054688 25.75 L 117.160156 25.75 L 117.160156 35.75 L 87.054688 35.75 Z M 87.054688 25.75 "/>
<path fill-rule="nonzero" fill="rgb(20%, 60%, 20%)" fill-opacity="0.535841" d="M 87.054688 25.75 L 117.160156 25.75 L 117.160156 35.75 L 87.054688 35.75 Z M 87.054688 25.75 "/>
<path fill-rule="nonzero" fill="rgb(20%, 60%, 20%)" fill-opacity="0.535841" d="M 87.054688 25.75 L 117.160156 25.75 L 117.160156 35.75 L 87.054688 35.75 Z M 87.054688 25.75 "/>
<path fill-rule="nonzero" fill="rgb(20%, 60%, 20%)" fill-opacity="0.535841" d="M 87.054688 25.75 L 107.625 25.75 L 107.625 35.75 L 87.054688 35.75 Z M 87.054688 25.75 "/>
<path fill-rule="nonzero" fill="rgb(20%, 60%, 20%)" fill-opacity="0.535841" d="M 111.640625 25.75 L 117.160156 25.75 L 117.160156 35.75 L 111.640625 35.75 Z M 111.640625 25.75 "/>
<path fill-rule="nonzero" fill="rgb(20%, 60%, 20%)" fill-opacity="0.535841" d="M 87.054688 25.75 L 117.160156 25.75 L 117.160156 35.75 L 87.054688 35.75 Z M 87.054688 25.75 "/>
<path fill-rule="nonzero" fill="rgb(20%, 60%, 20%)" fill-opacity="0.535841" stroke-width="0.75" stroke-linecap="butt" stroke-linejoin="miter" stroke="rgb(0%, 0%, 0%)" stroke-opacity="1" stroke-miterlimit="10" d="M 87.054688 25.75 L 117.160156 25.75 L 117.160156 35.75 L 87.054688 35.75 Z M 87.054688 25.75 "/>
<path fill-rule="nonzero" fill="rgb(20%, 60%, 20%)" fill-opacity="0.535841" d="M 135.222656 25.75 L 143.25 25.75 L 143.25 35.75 L 135.222656 35.75 Z M 135.222656 25.75 "/>
<path fill-rule="nonzero" fill="rgb(20%, 60%, 20%)" fill-opacity="0.535841" d="M 135.222656 25.75 L 141.242188 25.75 L 141.242188 35.75 L 135.222656 35.75 Z M 135.222656 25.75 "/>
<path fill-rule="nonzero" fill="rgb(20%, 60%, 20%)" fill-opacity="0.535841" d="M 135.222656 25.75 L 141.242188 25.75 L 141.242188 35.75 L 135.222656 35.75 Z M 135.222656 25.75 "/>
<path fill-rule="nonzero" fill="rgb(20%, 60%, 20%)" fill-opacity="0.535841" d="M 135.222656 25.75 L 140.742188 25.75 L 140.742188 35.75 L 135.222656 35.75 Z M 135.222656 25.75 "/>
<path fill-rule="nonzero" fill="rgb(20%, 60%, 20%)" fill-opacity="0.535841" d="M 135.222656 25.75 L 141.242188 25.75 L 141.242188 35.75 L 135.222656 35.75 Z M 135.222656 25.75 "/>
<path fill-rule="nonzero" fill="rgb(20%, 60%, 20%)" fill-opacity="0.535841" stroke-width="0.75" stroke-linecap="butt" stroke-linejoin="miter" stroke="rgb(0%, 0%, 0%)" stroke-opacity="1" stroke-miterlimit="10" d="M 135.222656 25.75 L 143.25 25.75 L 143.25 35.75 L 135.222656 35.75 Z M 135.222656 25.75 "/>
<path fill="none" stroke-width="0.75" stroke-linecap="butt" stroke-linejoin="miter" stroke="rgb(0%, 0%, 0%)" stroke-opacity="0.5" stroke-miterlimit="10" d="M 6.769531 29.003906 C 6.769531 28.585938 7.109375 28.25 7.523438 28.25 L 12.039062 28.25 C 12.457031 28.25 12.792969 28.585938 12.792969 29.003906 L 12.792969 32.496094 C 12.792969 32.914062 12.457031 33.25 12.039062 33.25 L 7.523438 33.25 C 7.109375 33.25 6.769531 32.914062 6.769531 32.496094 Z M 6.769531 29.003906 "/>
<path fill="none" stroke-width="0.75" stroke-linecap="butt" stroke-linejoin="miter" stroke="rgb(0%, 0%, 0%)" stroke-opacity="0.5" stroke-miterlimit="10" d="M 15.300781 29.003906 C 15.300781 28.585938 15.636719 28.25 16.054688 28.25 L 18.0625 28.25 C 18.476562 28.25 18.8125 28.585938 18.8125 29.003906 L 18.8125 32.496094 C 18.8125 32.914062 18.476562 33.25 18.0625 33.25 L 16.054688 33.25 C 15.636719 33.25 15.300781 32.914062 15.300781 32.496094 Z M 15.300781 29.003906 "/>
<path fill="none" stroke-width="0.75" stroke-linecap="butt" stroke-linejoin="miter" stroke="rgb(0%, 0%, 0%)" stroke-opacity="0.5" stroke-miterlimit="10" d="M 20.320312 29.003906 C 20.320312 28.585938 20.65625 28.25 21.070312 28.25 L 29.097656 28.25 C 29.515625 28.25 29.851562 28.585938 29.851562 29.003906 L 29.851562 32.496094 C 29.851562 32.914062 29.515625 33.25 29.097656 33.25 L 21.070312 33.25 C 20.65625 33.25 20.320312 32.914062 20.320312 32.496094 Z M 20.320312 29.003906 "/>
<path fill="none" stroke-width="0.75" stroke-linecap="butt" stroke-linejoin="miter" stroke="rgb(0%, 0%, 0%)" stroke-opacity="0.5" stroke-miterlimit="10" d="M 33.867188 29.5 L 35.875 29.5 L 35.875 28.25 L 36.875 30.75 L 35.875 33.25 L 35.875 32 L 33.867188 32 Z M 33.867188 29.5 "/>
<path fill="none" stroke-width="0.75" stroke-linecap="butt" stroke-linejoin="miter" stroke="rgb(0%, 0%, 0%)" stroke-opacity="0.5" stroke-miterlimit="10" d="M 37.878906 29.5 L 40.390625 29.5 L 40.390625 28.25 L 41.394531 30.75 L 40.390625 33.25 L 40.390625 32 L 37.878906 32 Z M 37.878906 29.5 "/>
<path fill="none" stroke-width="0.75" stroke-linecap="butt" stroke-linejoin="miter" stroke="rgb(0%, 0%, 0%)" stroke-opacity="0.5" stroke-miterlimit="10" d="M 42.394531 29.5 L 43.902344 29.5 L 43.902344 28.25 L 44.90625 30.75 L 43.902344 33.25 L 43.902344 32 L 42.394531 32 Z M 42.394531 29.5 "/>
<path fill="none" stroke-width="0.75" stroke-linecap="butt" stroke-linejoin="miter" stroke="rgb(0%, 0%, 0%)" stroke-opacity="0.5" stroke-miterlimit="10" d="M 44.90625 29.003906 C 44.90625 28.585938 45.242188 28.25 45.65625 28.25 L 51.679688 28.25 C 52.09375 28.25 52.429688 28.585938 52.429688 29.003906 L 52.429688 32.496094 C 52.429688 32.914062 52.09375 33.25 51.679688 33.25 L 45.65625 33.25 C 45.242188 33.25 44.90625 32.914062 44.90625 32.496094 Z M 44.90625 29.003906 "/>
<path fill="none" stroke-width="0.75" stroke-linecap="butt" stroke-linejoin="miter" stroke="rgb(0%, 0%, 0%)" stroke-opacity="0.5" stroke-miterlimit="10" d="M 64.976562 29.003906 C 64.976562 28.585938 65.3125 28.25 65.726562 28.25 L 69.242188 28.25 C 69.65625 28.25 69.992188 28.585938 69.992188 29.003906 L 69.992188 32.496094 C 69.992188 32.914062 69.65625 33.25 69.242188 33.25 L 65.726562 33.25 C 65.3125 33.25 64.976562 32.914062 64.976562 32.496094 Z M 64.976562 29.003906 "/>
<path fill="none" stroke-width="0.75" stroke-linecap="butt" stroke-linejoin="miter" stroke="rgb(0%, 0%, 0%)" stroke-opacity="0.5" stroke-miterlimit="10" d="M 71.5 29.5 L 72 29.5 L 72 28.25 L 73.003906 30.75 L 72 33.25 L 72 32 L 71.5 32 Z M 71.5 29.5 "/>
<path fill="none" stroke-width="0.75" stroke-linecap="butt" stroke-linejoin="miter" stroke="rgb(0%, 0%, 0%)" stroke-opacity="0.5" stroke-miterlimit="10" d="M 74.007812 29.5 L 75.011719 29.5 L 75.011719 28.25 L 76.015625 30.75 L 75.011719 33.25 L 75.011719 32 L 74.007812 32 Z M 74.007812 29.5 "/>
<path fill="none" stroke-width="0.75" stroke-linecap="butt" stroke-linejoin="miter" stroke="rgb(0%, 0%, 0%)" stroke-opacity="0.5" stroke-miterlimit="10" d="M 77.019531 29.5 L 80.027344 29.5 L 80.027344 28.25 L 81.03125 30.75 L 80.027344 33.25 L 80.027344 32 L 77.019531 32 Z M 77.019531 29.5 "/>
<path fill="none" stroke-width="0.75" stroke-linecap="butt" stroke-linejoin="miter" stroke="rgb(0%, 0%, 0%)" stroke-opacity="0.5" stroke-miterlimit="10" d="M 82.035156 29.5 L 84.542969 29.5 L 84.542969 28.25 L 85.546875 30.75 L 84.542969 33.25 L 84.542969 32 L 82.035156 32 Z M 82.035156 29.5 "/>
<path fill="none" stroke-width="0.75" stroke-linecap="butt" stroke-linejoin="miter" stroke="rgb(0%, 0%, 0%)" stroke-opacity="0.5" stroke-miterlimit="10" d="M 87.554688 29.003906 C 87.554688 28.585938 87.890625 28.25 88.308594 28.25 L 94.832031 28.25 C 95.246094 28.25 95.582031 28.585938 95.582031 29.003906 L 95.582031 32.496094 C 95.582031 32.914062 95.246094 33.25 94.832031 33.25 L 88.308594 33.25 C 87.890625 33.25 87.554688 32.914062 87.554688 32.496094 Z M 87.554688 29.003906 "/>
<path fill="none" stroke-width="0.75" stroke-linecap="butt" stroke-linejoin="miter" stroke="rgb(0%, 0%, 0%)" stroke-opacity="0.5" stroke-miterlimit="10" d="M 96.585938 29.003906 C 96.585938 28.585938 96.921875 28.25 97.339844 28.25 L 106.371094 28.25 C 106.785156 28.25 107.125 28.585938 107.125 29.003906 L 107.125 32.496094 C 107.125 32.914062 106.785156 33.25 106.371094 33.25 L 97.339844 33.25 C 96.921875 33.25 96.585938 32.914062 96.585938 32.496094 Z M 96.585938 29.003906 "/>
<path fill="none" stroke-width="0.75" stroke-linecap="butt" stroke-linejoin="miter" stroke="rgb(0%, 0%, 0%)" stroke-opacity="0.5" stroke-miterlimit="10" d="M 108.628906 29.003906 C 108.628906 28.585938 108.964844 28.25 109.382812 28.25 L 112.390625 28.25 C 112.808594 28.25 113.144531 28.585938 113.144531 29.003906 L 113.144531 32.496094 C 113.144531 32.914062 112.808594 33.25 112.390625 33.25 L 109.382812 33.25 C 108.964844 33.25 108.628906 32.914062 108.628906 32.496094 Z M 108.628906 29.003906 "/>
<path fill="none" stroke-width="0.75" stroke-linecap="butt" stroke-linejoin="miter" stroke="rgb(0%, 0%, 0%)" stroke-opacity="0.5" stroke-miterlimit="10" d="M 114.148438 29.003906 C 114.148438 28.585938 114.484375 28.25 114.902344 28.25 L 115.402344 28.25 C 115.816406 28.25 116.15625 28.585938 116.15625 29.003906 L 116.15625 32.496094 C 116.15625 32.914062 115.816406 33.25 115.402344 33.25 L 114.902344 33.25 C 114.484375 33.25 114.148438 32.914062 114.148438 32.496094 Z M 114.148438 29.003906 "/>
<path fill="none" stroke-width="0.75" stroke-linecap="butt" stroke-linejoin="miter" stroke="rgb(0%, 0%, 0%)" stroke-opacity="0.5" stroke-miterlimit="10" d="M 118.160156 29.5 L 120.671875 29.5 L 120.671875 28.25 L 121.675781 30.75 L 120.671875 33.25 L 120.671875 32 L 118.160156 32 Z M 118.160156 29.5 "/>
<path fill="none" stroke-width="0.75" stroke-linecap="butt" stroke-linejoin="miter" stroke="rgb(0%, 0%, 0%)" stroke-opacity="0.5" stroke-miterlimit="10" d="M 122.175781 29.003906 C 122.175781 28.585938 122.511719 28.25 122.929688 28.25 L 141.492188 28.25 C 141.910156 28.25 142.246094 28.585938 142.246094 29.003906 L 142.246094 32.496094 C 142.246094 32.914062 141.910156 33.25 141.492188 33.25 L 122.929688 33.25 C 122.511719 33.25 122.175781 32.914062 122.175781 32.496094 Z M 122.175781 29.003906 "/>
</svg>
